<?xml version="1.0" encoding="UTF-8" standalone="no"?>
<!-- Created with Inkscape (http://www.inkscape.org/) -->

<svg
   xmlns:dc="http://purl.org/dc/elements/1.1/"
   xmlns:cc="http://creativecommons.org/ns#"
   xmlns:rdf="http://www.w3.org/1999/02/22-rdf-syntax-ns#"
   xmlns:svg="http://www.w3.org/2000/svg"
   xmlns="http://www.w3.org/2000/svg"
   xmlns:sodipodi="http://sodipodi.sourceforge.net/DTD/sodipodi-0.dtd"
   xmlns:inkscape="http://www.inkscape.org/namespaces/inkscape"
   width="210mm"
   height="297mm"
   viewBox="0 0 744.09448819 1052.3622047"
   id="svg3411"
   version="1.1"
   inkscape:version="0.92.3 (2405546, 2018-03-11)"
   sodipodi:docname="EnergyEstimatePsiS.svg">
  <sodipodi:namedview
     id="base"
     pagecolor="#ffffff"
     bordercolor="#666666"
     borderopacity="1.0"
     inkscape:pageopacity="0.0"
     inkscape:pageshadow="2"
     inkscape:zoom="1.4142136"
     inkscape:cx="335.86133"
     inkscape:cy="933.30527"
     inkscape:document-units="px"
     inkscape:current-layer="layer1"
     showgrid="false"
     inkscape:window-width="1280"
     inkscape:window-height="961"
     inkscape:window-x="-8"
     inkscape:window-y="-7"
     inkscape:window-maximized="1"
     inkscape:lockguides="false" />
  <defs
     id="defs3413">
    <marker
       inkscape:stockid="Arrow1Mstart"
       orient="auto"
       refY="0.0"
       refX="0.0"
       id="Arrow1Mstart"
       style="overflow:visible"
       inkscape:isstock="true">
      <path
         id="path4180"
         d="M 0.0,0.0 L 5.0,-5.0 L -12.5,0.0 L 5.0,5.0 L 0.0,0.0 z "
         style="fill-rule:evenodd;stroke:#000000;stroke-width:1pt;stroke-opacity:1;fill:#000000;fill-opacity:1"
         transform="scale(0.4) translate(10,0)" />
    </marker>
    <marker
       inkscape:stockid="Arrow1Lend"
       orient="auto"
       refY="0.0"
       refX="0.0"
       id="marker4500"
       style="overflow:visible;"
       inkscape:isstock="true">
      <path
         id="path4502"
         d="M 0.0,0.0 L 5.0,-5.0 L -12.5,0.0 L 5.0,5.0 L 0.0,0.0 z "
         style="fill-rule:evenodd;stroke:#000000;stroke-width:1pt;stroke-opacity:1;fill:#000000;fill-opacity:1"
         transform="scale(0.8) rotate(180) translate(12.5,0)" />
    </marker>
    <marker
       inkscape:stockid="Arrow1Lend"
       orient="auto"
       refY="0.0"
       refX="0.0"
       id="Arrow1Lend"
       style="overflow:visible;"
       inkscape:isstock="true">
      <path
         id="path4177"
         d="M 0.0,0.0 L 5.0,-5.0 L -12.5,0.0 L 5.0,5.0 L 0.0,0.0 z "
         style="fill-rule:evenodd;stroke:#000000;stroke-width:1pt;stroke-opacity:1;fill:#000000;fill-opacity:1"
         transform="scale(0.8) rotate(180) translate(12.5,0)" />
    </marker>
    <marker
       inkscape:stockid="Arrow1Lstart"
       orient="auto"
       refY="0.0"
       refX="0.0"
       id="Arrow1Lstart"
       style="overflow:visible"
       inkscape:isstock="true">
      <path
         id="path4174"
         d="M 0.0,0.0 L 5.0,-5.0 L -12.5,0.0 L 5.0,5.0 L 0.0,0.0 z "
         style="fill-rule:evenodd;stroke:#000000;stroke-width:1pt;stroke-opacity:1;fill:#000000;fill-opacity:1"
         transform="scale(0.8) translate(12.5,0)" />
    </marker>
  </defs>
  <metadata
     id="metadata3416">
    <rdf:RDF>
      <cc:Work
         rdf:about="">
        <dc:format>image/svg+xml</dc:format>
        <dc:type
           rdf:resource="http://purl.org/dc/dcmitype/StillImage" />
        <dc:title></dc:title>
      </cc:Work>
    </rdf:RDF>
  </metadata>
  <g
     inkscape:groupmode="layer"
     id="layer3"
     inkscape:label="Areas"
     style="display:inline">
    <path
       style="display:inline;fill:#ff7f2a;stroke-width:0.5"
       d="m 135.03354,247.40279 -0.25595,-58.68535 c 15.56026,0 31.36716,3.87793 39.96273,5.80744 8.59557,1.92951 18.57038,6.07693 25.10572,9.24801 7.23668,3.51138 13.96023,7.66398 23.81606,14.8165 -30.74598,30.29587 -50.39758,50.32949 -87.85689,88.04115 0.0863,-23.27092 -0.77167,-59.22775 -0.77167,-59.22775 z"
       id="path3833"
       inkscape:connector-curvature="0"
       sodipodi:nodetypes="cczsccc"
       transform="scale(0.9375)" />
    <path
       style="display:inline;fill:#800080;stroke-width:0.5"
       d="m 248.04585,242.61932 c 27.66015,41.50932 28.15542,67.93878 28.75262,87.90037 -42.95365,0 -60.46145,0.0272 -116.56508,0.0272 26.04883,-25.90892 59.20762,-59.28999 87.81246,-87.92761 z"
       id="path3835"
       inkscape:connector-curvature="0"
       sodipodi:nodetypes="cccc"
       transform="scale(0.9375)" />
    <path
       style="display:inline;fill:#800080;stroke-width:0.70710677"
       d="m 134.875,157.33801 c 0,-34.28828 0.71272,-58.356881 0.71272,-75.32595 84.26721,0 163.96313,-0.2804 248.96282,-0.2804 -13.96531,13.96531 -62.29461,62.84811 -80.19562,79.5249 -6.43772,-6.55498 -8.0689,-7.88009 -11.76849,-11.71743 -12.74573,12.51676 -36.13714,36.12735 -46.37708,46.15376 -20.94162,-16.26358 -27.23864,-20.62116 -49.98644,-28.57406 -18.64111,-6.88278 -37.09072,-8.28679 -61.34791,-9.78082 z"
       id="path3847"
       inkscape:connector-curvature="0"
       sodipodi:nodetypes="cccccccc"
       transform="scale(0.9375)" />
    <path
       style="display:inline;fill:#ff7f2a;stroke-width:0.66291261"
       d="m 289.91642,309.86221 c 32.14527,0 54.70958,-0.66818 70.61808,-0.66818 0,-79.00051 0.76093,-152.95371 0.76093,-232.640916 -13.09248,13.09248 -59.41816,57.639476 -75.05265,74.421666 6.1453,6.03537 7.06994,7.55727 10.66282,12.20484 -12.05672,11.94913 -33.44458,33.21939 -42.84433,42.81934 15.2471,19.63276 18.76104,25.11141 26.21688,46.43747 6.45261,17.47604 8.23762,34.68466 9.63827,57.42578 z"
       id="path3847-7"
       inkscape:connector-curvature="0"
       sodipodi:nodetypes="cccccccc" />
  </g>
  <g
     inkscape:label="Capa 1"
     inkscape:groupmode="layer"
     id="layer1"
     style="display:inline">
    <path
       style="display:inline;fill:none;stroke:#000000;stroke-width:2.35991526px;stroke-linecap:butt;stroke-linejoin:miter;stroke-opacity:1"
       d="M 127.05618,310.98665 V 61.522284"
       id="path932"
       inkscape:connector-curvature="0"
       sodipodi:nodetypes="cc" />
    <path
       style="display:inline;fill:none;stroke:#000000;stroke-width:2.35991526px;stroke-linecap:butt;stroke-linejoin:miter;stroke-opacity:1"
       d="M 126.50553,309.80634 H 368.4872"
       id="path932-3"
       inkscape:connector-curvature="0"
       sodipodi:nodetypes="cc" />
    <path
       inkscape:connector-curvature="0"
       id="path930-5"
       d="m 368.4872,309.80634 -2.33794,2.32258 8.18273,-2.32258 -8.18273,-2.32257 z"
       style="display:inline;fill:#000000;fill-opacity:1;fill-rule:evenodd;stroke:#000000;stroke-width:0.46604995pt;stroke-opacity:1" />
    <path
       style="display:inline;fill:none;stroke:#000000;stroke-width:2.35465622px;stroke-linecap:butt;stroke-linejoin:miter;stroke-opacity:1"
       d="m 127.03125,146.97704 c 39.96695,0 83.21657,13.99793 115.96875,46.87892 32.75217,32.881 46.91642,75.85557 46.91642,116.00625"
       id="path965-3-0"
       inkscape:connector-curvature="0"
       sodipodi:nodetypes="czc" />
    <path
       inkscape:connector-curvature="0"
       id="path930"
       d="m 127.05618,61.522284 2.32259,2.33794 -2.32259,-8.18272 -2.32258,8.18272 z"
       style="display:inline;fill:#000000;fill-opacity:1;fill-rule:evenodd;stroke:#000000;stroke-width:0.46604995pt;stroke-opacity:1" />
    <path
       style="display:inline;fill:none;fill-rule:evenodd;stroke:#000000;stroke-width:0.91711611px;stroke-linecap:butt;stroke-linejoin:miter;stroke-opacity:1"
       d="M 150.25628,309.84808 362.42036,97.687003"
       id="path3484-3"
       inkscape:connector-curvature="0"
       sodipodi:nodetypes="cc" />
    <path
       style="display:inline;fill:none;stroke:#000000;stroke-width:2.25287461px;stroke-linecap:butt;stroke-linejoin:miter;stroke-opacity:1"
       d="m 127.03125,177.3949 c 24.67755,0 65.17779,8.43534 94.4625,38.00481 29.28472,29.56947 38.00482,69.51954 38.00482,94.4625"
       id="path965-3"
       inkscape:connector-curvature="0"
       sodipodi:nodetypes="czc" />
    <path
       style="display:inline;fill:none;fill-rule:evenodd;stroke:#000000;stroke-width:2.48435283;stroke-linecap:butt;stroke-linejoin:miter;stroke-miterlimit:4;stroke-dasharray:none;stroke-opacity:1"
       d="M 126.76286,310.06434 364.18692,72.884395"
       id="path3484"
       inkscape:connector-curvature="0"
       sodipodi:nodetypes="cc" />
    <path
       style="display:inline;fill:none;stroke:#000000;stroke-width:2.11217475px;stroke-linecap:butt;stroke-linejoin:miter;stroke-opacity:1"
       d="m 127.03125,207.7933 c 23.2193,0 50.35024,6.52471 72.91875,29.15016 22.09834,22.15408 29.15017,49.61711 29.15017,72.91875"
       id="path965"
       inkscape:connector-curvature="0"
       sodipodi:nodetypes="csc" />
    <path
       style="display:inline;fill:none;stroke:#000000;stroke-width:3.22924304px;stroke-linecap:butt;stroke-linejoin:miter;stroke-opacity:1"
       d="m 126.64666,86.265951 c 54.81182,0 114.56107,19.408569 159.47834,64.502509 44.91727,45.09394 63.90704,103.81909 63.90704,158.88287"
       id="path965-3-0-2"
       inkscape:connector-curvature="0"
       sodipodi:nodetypes="czc" />
    <path
       style="display:inline;fill:none;fill-rule:evenodd;stroke:#000000;stroke-width:0.90755385px;stroke-linecap:butt;stroke-linejoin:miter;stroke-opacity:1"
       d="M 127.18465,287.2416 337.49457,76.95257"
       id="path3484-3-5"
       inkscape:connector-curvature="0"
       sodipodi:nodetypes="cc" />
  </g>
</svg>
