<?xml version="1.0" encoding="UTF-8" standalone="no"?>
<!-- Created with Inkscape (http://www.inkscape.org/) -->

<svg
   xmlns:dc="http://purl.org/dc/elements/1.1/"
   xmlns:cc="http://creativecommons.org/ns#"
   xmlns:rdf="http://www.w3.org/1999/02/22-rdf-syntax-ns#"
   xmlns:svg="http://www.w3.org/2000/svg"
   xmlns="http://www.w3.org/2000/svg"
   xmlns:sodipodi="http://sodipodi.sourceforge.net/DTD/sodipodi-0.dtd"
   xmlns:inkscape="http://www.inkscape.org/namespaces/inkscape"
   width="210mm"
   height="297mm"
   viewBox="0 0 744.09448819 1052.3622047"
   id="svg3411"
   version="1.1"
   inkscape:version="0.92.3 (2405546, 2018-03-11)"
   sodipodi:docname="EnergyEstimateOmegaS.svg">
  <sodipodi:namedview
     id="base"
     pagecolor="#ffffff"
     bordercolor="#666666"
     borderopacity="1.0"
     inkscape:pageopacity="0.0"
     inkscape:pageshadow="2"
     inkscape:zoom="1"
     inkscape:cx="364.00026"
     inkscape:cy="845.36908"
     inkscape:document-units="px"
     inkscape:current-layer="layer1"
     showgrid="false"
     inkscape:window-width="1280"
     inkscape:window-height="961"
     inkscape:window-x="-8"
     inkscape:window-y="-7"
     inkscape:window-maximized="1"
     inkscape:lockguides="false" />
  <defs
     id="defs3413">
    <marker
       inkscape:stockid="Arrow1Mstart"
       orient="auto"
       refY="0.0"
       refX="0.0"
       id="Arrow1Mstart"
       style="overflow:visible"
       inkscape:isstock="true">
      <path
         id="path4180"
         d="M 0.0,0.0 L 5.0,-5.0 L -12.5,0.0 L 5.0,5.0 L 0.0,0.0 z "
         style="fill-rule:evenodd;stroke:#000000;stroke-width:1pt;stroke-opacity:1;fill:#000000;fill-opacity:1"
         transform="scale(0.4) translate(10,0)" />
    </marker>
    <marker
       inkscape:stockid="Arrow1Lend"
       orient="auto"
       refY="0.0"
       refX="0.0"
       id="marker4500"
       style="overflow:visible;"
       inkscape:isstock="true">
      <path
         id="path4502"
         d="M 0.0,0.0 L 5.0,-5.0 L -12.5,0.0 L 5.0,5.0 L 0.0,0.0 z "
         style="fill-rule:evenodd;stroke:#000000;stroke-width:1pt;stroke-opacity:1;fill:#000000;fill-opacity:1"
         transform="scale(0.8) rotate(180) translate(12.5,0)" />
    </marker>
    <marker
       inkscape:stockid="Arrow1Lend"
       orient="auto"
       refY="0.0"
       refX="0.0"
       id="Arrow1Lend"
       style="overflow:visible;"
       inkscape:isstock="true">
      <path
         id="path4177"
         d="M 0.0,0.0 L 5.0,-5.0 L -12.5,0.0 L 5.0,5.0 L 0.0,0.0 z "
         style="fill-rule:evenodd;stroke:#000000;stroke-width:1pt;stroke-opacity:1;fill:#000000;fill-opacity:1"
         transform="scale(0.8) rotate(180) translate(12.5,0)" />
    </marker>
    <marker
       inkscape:stockid="Arrow1Lstart"
       orient="auto"
       refY="0.0"
       refX="0.0"
       id="Arrow1Lstart"
       style="overflow:visible"
       inkscape:isstock="true">
      <path
         id="path4174"
         d="M 0.0,0.0 L 5.0,-5.0 L -12.5,0.0 L 5.0,5.0 L 0.0,0.0 z "
         style="fill-rule:evenodd;stroke:#000000;stroke-width:1pt;stroke-opacity:1;fill:#000000;fill-opacity:1"
         transform="scale(0.8) translate(12.5,0)" />
    </marker>
  </defs>
  <metadata
     id="metadata3416">
    <rdf:RDF>
      <cc:Work
         rdf:about="">
        <dc:format>image/svg+xml</dc:format>
        <dc:type
           rdf:resource="http://purl.org/dc/dcmitype/StillImage" />
        <dc:title />
      </cc:Work>
    </rdf:RDF>
  </metadata>
  <g
     inkscape:groupmode="layer"
     id="layer2"
     inkscape:label="Layer 1"
     style="display:inline">
    <path
       style="display:inline;fill:#ff0000;stroke-width:1.51977944;stroke-linecap:round;stroke-miterlimit:4;stroke-dasharray:none"
       d="m 210.39577,249.79065 c -22.38569,22.38569 -38.20216,38.13265 -60.24132,60.17181 -1.9323,0 -12.38545,-0.25753 -23.14558,-0.22537 0,-8.98934 0.0737,-8.58796 0.0737,-22.37645 9.21472,-9.25457 50.22235,-50.25955 60.70844,-60.78203 -17.76115,-12.48557 -38.02719,-18.78484 -60.75976,-18.78484 0,-16.85465 -0.032,-46.71864 -0.032,-60.9654 43.94011,0 81.60468,15.63974 116.00075,47.02759 28.93849,32.11568 46.91642,69.50779 46.91642,116.00625 -29.18547,0 -31.95086,0 -60.81579,0 0,-30.4671 -7.36448,-40.42944 -18.70486,-60.07156 z"
       id="path1035"
       inkscape:connector-curvature="0"
       sodipodi:nodetypes="ccccccccccc" />
  </g>
  <g
     inkscape:label="Capa 1"
     inkscape:groupmode="layer"
     id="layer1"
     style="display:inline">
    <path
       style="display:inline;fill:none;stroke:#000000;stroke-width:2.35991526px;stroke-linecap:butt;stroke-linejoin:miter;stroke-opacity:1"
       d="m 127.05618,310.98665 0,-249.464366"
       id="path932"
       inkscape:connector-curvature="0"
       sodipodi:nodetypes="cc" />
    <path
       style="display:inline;fill:none;stroke:#000000;stroke-width:2.35991526px;stroke-linecap:butt;stroke-linejoin:miter;stroke-opacity:1"
       d="m 126.50553,309.80634 241.98167,0"
       id="path932-3"
       inkscape:connector-curvature="0"
       sodipodi:nodetypes="cc" />
    <path
       inkscape:connector-curvature="0"
       id="path930-5"
       d="m 368.4872,309.80634 -2.33794,2.32258 8.18273,-2.32258 -8.18273,-2.32257 z"
       style="display:inline;fill:#000000;fill-opacity:1;fill-rule:evenodd;stroke:#000000;stroke-width:0.46604995pt;stroke-opacity:1" />
    <path
       style="display:inline;fill:none;stroke:#000000;stroke-width:2.11217475px;stroke-linecap:butt;stroke-linejoin:miter;stroke-opacity:1"
       d="m 127.03125,207.7933 c 23.2193,0 50.35024,6.52471 72.91875,29.15016 22.09834,22.15408 29.15017,49.61711 29.15017,72.91875"
       id="path965"
       inkscape:connector-curvature="0"
       sodipodi:nodetypes="csc" />
    <path
       style="display:inline;fill:none;stroke:#000000;stroke-width:2.35465622px;stroke-linecap:butt;stroke-linejoin:miter;stroke-opacity:1"
       d="m 127.03125,146.97704 c 39.96695,0 83.21657,13.99793 115.96875,46.87892 32.75217,32.881 46.91642,75.85557 46.91642,116.00625"
       id="path965-3-0"
       inkscape:connector-curvature="0"
       sodipodi:nodetypes="czc" />
    <path
       inkscape:connector-curvature="0"
       id="path930"
       d="m 127.05618,61.522284 2.32259,2.33794 -2.32259,-8.18272 -2.32258,8.18272 z"
       style="display:inline;fill:#000000;fill-opacity:1;fill-rule:evenodd;stroke:#000000;stroke-width:0.46604995pt;stroke-opacity:1" />
    <path
       style="display:inline;fill:none;fill-rule:evenodd;stroke:#000000;stroke-width:0.90896761px;stroke-linecap:butt;stroke-linejoin:miter;stroke-opacity:1"
       d="M 150.25341,309.85096 360.55054,99.593055"
       id="path3484-3"
       inkscape:connector-curvature="0"
       sodipodi:nodetypes="cc" />
    <path
       style="display:inline;fill:none;fill-rule:evenodd;stroke:#000000;stroke-width:0.90746373px;stroke-linecap:butt;stroke-linejoin:miter;stroke-opacity:1"
       d="M 127.18617,287.24302 337.48423,76.983871"
       id="path3484-3-5"
       inkscape:connector-curvature="0"
       sodipodi:nodetypes="cc" />
    <path
       style="display:inline;fill:none;stroke:#000000;stroke-width:2.25287461px;stroke-linecap:butt;stroke-linejoin:miter;stroke-opacity:1"
       d="m 127.03125,177.3949 c 24.67755,0 65.17779,8.43534 94.4625,38.00481 29.28472,29.56947 38.00482,69.51954 38.00482,94.4625"
       id="path965-3"
       inkscape:connector-curvature="0"
       sodipodi:nodetypes="czc" />
    <path
       style="display:inline;fill:none;fill-rule:evenodd;stroke:#000000;stroke-width:2.48379159;stroke-linecap:butt;stroke-linejoin:miter;stroke-miterlimit:4;stroke-dasharray:none;stroke-opacity:1"
       d="M 126.76394,310.06576 364.08002,72.885018"
       id="path3484"
       inkscape:connector-curvature="0"
       sodipodi:nodetypes="cc" />
    <path
       style="display:inline;fill:none;stroke:#000000;stroke-width:3.22924304px;stroke-linecap:butt;stroke-linejoin:miter;stroke-opacity:1"
       d="m 126.64666,86.265951 c 54.81182,0 114.56107,19.408569 159.47834,64.502509 44.91727,45.09394 63.90704,103.81909 63.90704,158.88287"
       id="path965-3-0-2"
       inkscape:connector-curvature="0"
       sodipodi:nodetypes="czc" />
  </g>
</svg>
