<?xml version="1.0" encoding="UTF-8" standalone="no"?>
<!-- Created with Inkscape (http://www.inkscape.org/) -->

<svg
   xmlns:dc="http://purl.org/dc/elements/1.1/"
   xmlns:cc="http://creativecommons.org/ns#"
   xmlns:rdf="http://www.w3.org/1999/02/22-rdf-syntax-ns#"
   xmlns:svg="http://www.w3.org/2000/svg"
   xmlns="http://www.w3.org/2000/svg"
   xmlns:sodipodi="http://sodipodi.sourceforge.net/DTD/sodipodi-0.dtd"
   xmlns:inkscape="http://www.inkscape.org/namespaces/inkscape"
   width="210mm"
   height="297mm"
   viewBox="0 0 744.09448819 1052.3622047"
   id="svg3411"
   version="1.1"
   inkscape:version="0.92.3 (2405546, 2018-03-11)"
   sodipodi:docname="EnergyEstimateOmegaS.svg">
  <sodipodi:namedview
     id="base"
     pagecolor="#ffffff"
     bordercolor="#666666"
     borderopacity="1.0"
     inkscape:pageopacity="0.0"
     inkscape:pageshadow="2"
     inkscape:zoom="1.4142136"
     inkscape:cx="401.8488"
     inkscape:cy="836.7153"
     inkscape:document-units="px"
     inkscape:current-layer="layer1"
     showgrid="false"
     inkscape:window-width="1280"
     inkscape:window-height="961"
     inkscape:window-x="-8"
     inkscape:window-y="-8"
     inkscape:window-maximized="1"
     inkscape:lockguides="false" />
  <defs
     id="defs3413">
    <marker
       inkscape:stockid="Arrow1Mstart"
       orient="auto"
       refY="0.0"
       refX="0.0"
       id="Arrow1Mstart"
       style="overflow:visible"
       inkscape:isstock="true">
      <path
         id="path4180"
         d="M 0.0,0.0 L 5.0,-5.0 L -12.5,0.0 L 5.0,5.0 L 0.0,0.0 z "
         style="fill-rule:evenodd;stroke:#000000;stroke-width:1pt;stroke-opacity:1;fill:#000000;fill-opacity:1"
         transform="scale(0.4) translate(10,0)" />
    </marker>
    <marker
       inkscape:stockid="Arrow1Lend"
       orient="auto"
       refY="0.0"
       refX="0.0"
       id="marker4500"
       style="overflow:visible;"
       inkscape:isstock="true">
      <path
         id="path4502"
         d="M 0.0,0.0 L 5.0,-5.0 L -12.5,0.0 L 5.0,5.0 L 0.0,0.0 z "
         style="fill-rule:evenodd;stroke:#000000;stroke-width:1pt;stroke-opacity:1;fill:#000000;fill-opacity:1"
         transform="scale(0.8) rotate(180) translate(12.5,0)" />
    </marker>
    <marker
       inkscape:stockid="Arrow1Lend"
       orient="auto"
       refY="0.0"
       refX="0.0"
       id="Arrow1Lend"
       style="overflow:visible;"
       inkscape:isstock="true">
      <path
         id="path4177"
         d="M 0.0,0.0 L 5.0,-5.0 L -12.5,0.0 L 5.0,5.0 L 0.0,0.0 z "
         style="fill-rule:evenodd;stroke:#000000;stroke-width:1pt;stroke-opacity:1;fill:#000000;fill-opacity:1"
         transform="scale(0.8) rotate(180) translate(12.5,0)" />
    </marker>
    <marker
       inkscape:stockid="Arrow1Lstart"
       orient="auto"
       refY="0.0"
       refX="0.0"
       id="Arrow1Lstart"
       style="overflow:visible"
       inkscape:isstock="true">
      <path
         id="path4174"
         d="M 0.0,0.0 L 5.0,-5.0 L -12.5,0.0 L 5.0,5.0 L 0.0,0.0 z "
         style="fill-rule:evenodd;stroke:#000000;stroke-width:1pt;stroke-opacity:1;fill:#000000;fill-opacity:1"
         transform="scale(0.8) translate(12.5,0)" />
    </marker>
  </defs>
  <metadata
     id="metadata3416">
    <rdf:RDF>
      <cc:Work
         rdf:about="">
        <dc:format>image/svg+xml</dc:format>
        <dc:type
           rdf:resource="http://purl.org/dc/dcmitype/StillImage" />
        <dc:title></dc:title>
      </cc:Work>
    </rdf:RDF>
  </metadata>
  <g
     inkscape:groupmode="layer"
     id="layer2"
     inkscape:label="Layer 1"
     style="display:inline">
    <path
       style="display:inline;fill:#ff0000;stroke-width:1.51977944;stroke-linecap:round;stroke-miterlimit:4;stroke-dasharray:none"
       d="m 240.71019,301.49865 c -1.17238,-10.67579 -5.44466,-25.89872 -7.59911,-31.22786 -1.44316,-3.56966 -6.86608,-13.98142 -9.76696,-18.36487 -1.79016,1.97596 -2.92101,2.84255 -5.03467,4.91191 -0.59694,0.58443 -13.66442,13.60763 -26.81442,26.77369 -11.90263,11.91717 -23.89638,23.9891 -26.34059,26.37094 -1.9323,0 -12.03507,-0.30342 -38.14557,-0.22537 0,-8.98934 -0.1475,-23.28868 -0.1475,-37.07717 9.21472,-9.25457 48.74974,-48.80546 59.23583,-59.32794 -5.75517,-3.75252 -10.77325,-6.13262 -16.42043,-8.53454 -5.74948,-2.44541 -21.16884,-6.93673 -25.86505,-7.25525 -2.06504,-0.13994 -6.28376,-0.72379 -11.7853,-1.16393 l -4.91579,-0.48966 -0.1947,-25.20841 c -0.14065,-18.21826 -0.32763,-23.85301 0.0833,-23.85182 21.87209,0.0589 38.01071,4.03739 44.86753,6.08147 6.85685,2.04409 33.61548,11.78686 50.42254,24.51497 16.80706,12.72813 25.89586,21.71157 37.75123,37.40515 11.85537,15.69358 20.0045,36.95625 25.31098,53.85647 5.30649,16.9002 5.40405,31.39907 5.4065,33.75092 l -0.18903,7.31989 -24.1395,0.23316 -25.13448,-0.2046 z"
       id="path1035"
       inkscape:connector-curvature="0"
       sodipodi:nodetypes="cscssccccscccsczzzzccccc" />
  </g>
  <g
     inkscape:label="Capa 1"
     inkscape:groupmode="layer"
     id="layer1"
     style="display:inline">
    <path
       style="display:inline;fill:none;stroke:#000000;stroke-width:2.35991526px;stroke-linecap:butt;stroke-linejoin:miter;stroke-opacity:1"
       d="M 127.05618,310.98665 V 101.8267"
       id="path932"
       inkscape:connector-curvature="0"
       sodipodi:nodetypes="cc" />
    <path
       style="display:inline;fill:none;stroke:#000000;stroke-width:2.35991526px;stroke-linecap:butt;stroke-linejoin:miter;stroke-opacity:1"
       d="M 126.50553,309.80634 H 336.00448"
       id="path932-3"
       inkscape:connector-curvature="0" />
    <path
       inkscape:connector-curvature="0"
       id="path930-5"
       d="m 334.87952,309.80634 -2.33794,2.32258 8.18273,-2.32258 -8.18273,-2.32257 z"
       style="display:inline;fill:#000000;fill-opacity:1;fill-rule:evenodd;stroke:#000000;stroke-width:0.46604995pt;stroke-opacity:1" />
    <path
       style="display:inline;fill:none;stroke:#000000;stroke-width:2.35991526px;stroke-linecap:butt;stroke-linejoin:miter;stroke-opacity:1"
       d="m 127.11061,195.88866 c 25.97543,0 54.2457,8.57209 79.49309,33.81949 24.72142,24.72141 34.6914,54.07574 34.6914,80.0777"
       id="path965"
       inkscape:connector-curvature="0"
       sodipodi:nodetypes="csc" />
    <path
       style="display:inline;fill:none;stroke:#000000;stroke-width:2.35991526px;stroke-linecap:butt;stroke-linejoin:miter;stroke-opacity:1"
       d="m 126.99937,146.82843 c 40.13492,0 82.43967,14.93118 115.32949,47.82099 32.88982,32.88982 48.24022,74.94643 48.24022,115.10788"
       id="path965-3-0"
       inkscape:connector-curvature="0"
       sodipodi:nodetypes="czc" />
    <path
       inkscape:connector-curvature="0"
       id="path930"
       d="m 127.05618,101.8267 2.32259,2.33794 -2.32259,-8.18272 -2.32258,8.18272 z"
       style="display:inline;fill:#000000;fill-opacity:1;fill-rule:evenodd;stroke:#000000;stroke-width:0.46604995pt;stroke-opacity:1" />
    <path
       style="display:inline;fill:none;fill-rule:evenodd;stroke:#000000;stroke-width:0.61020762px;stroke-linecap:butt;stroke-linejoin:miter;stroke-opacity:1"
       d="M 165.15445,309.96246 306.31763,168.79888"
       id="path3484-3"
       inkscape:connector-curvature="0"
       sodipodi:nodetypes="cc" />
    <path
       style="display:inline;fill:none;fill-rule:evenodd;stroke:#000000;stroke-width:0.60919911px;stroke-linecap:butt;stroke-linejoin:miter;stroke-opacity:1"
       d="M 127.08254,272.36064 268.2467,131.1961"
       id="path3484-3-5"
       inkscape:connector-curvature="0"
       sodipodi:nodetypes="cc" />
    <path
       style="display:inline;fill:none;stroke:#000000;stroke-width:2.35991526px;stroke-linecap:butt;stroke-linejoin:miter;stroke-opacity:1"
       d="m 126.99531,171.90002 c 25.97543,0 66.84803,9.74651 97.67293,40.57141 30.8249,30.82489 41.76129,71.51809 41.76129,97.52005"
       id="path965-3"
       inkscape:connector-curvature="0"
       sodipodi:nodetypes="czc" />
    <path
       style="display:inline;fill:none;fill-rule:evenodd;stroke:#000000;stroke-width:1.96202409;stroke-linecap:butt;stroke-linejoin:miter;stroke-miterlimit:4;stroke-dasharray:none;stroke-opacity:1"
       d="M 126.58576,310.25612 313.97816,122.82876"
       id="path3484"
       inkscape:connector-curvature="0"
       sodipodi:nodetypes="cc" />
  </g>
</svg>
